<svg width="22" height="22" viewBox="0 0 22 22" fill="none" xmlns="http://www.w3.org/2000/svg">
<path d="M7.37424 8.80015C7.58028 9.00492 7.85899 9.11986 8.14952 9.11986C8.44003 9.11986 8.71875 9.00492 8.92479 8.80015C9.12961 8.59415 9.24457 8.31549 9.24457 8.02503C9.24457 7.73457 9.12961 7.45591 8.92479 7.24992L2.02979 0.323341C1.82272 0.116309 1.54186 0 1.24902 0C0.956169 0 0.675317 0.116309 0.468242 0.323341C0.261168 0.530373 0.144835 0.811168 0.144835 1.10395C0.144835 1.39674 0.261168 1.67754 0.468242 1.88457L7.37424 8.80015ZM20.9003 13.198C20.6087 13.198 20.329 13.3138 20.1227 13.52C19.9165 13.7262 19.8006 14.0058 19.8006 14.2974V18.2445L14.7861 13.198C14.5761 12.988 14.2913 12.8701 13.9943 12.8701C13.6973 12.8701 13.4125 12.988 13.2025 13.198C12.9926 13.4079 12.8746 13.6927 12.8746 13.9896C12.8746 14.2865 12.9926 14.5712 13.2025 14.7812L18.2501 19.7947H14.3022C14.0106 19.7947 13.7309 19.9105 13.5246 20.1167C13.3184 20.3229 13.2025 20.6026 13.2025 20.8942C13.2025 21.1858 13.3184 21.4654 13.5246 21.6716C13.7309 21.8778 14.0106 21.9936 14.3022 21.9936H20.9003C21.044 21.9919 21.186 21.962 21.3182 21.9057C21.5869 21.7941 21.8004 21.5806 21.912 21.312C21.9684 21.1798 21.9983 21.0378 22 20.8942V14.2974C22 14.0058 21.8841 13.7262 21.6779 13.52C21.4717 13.3138 21.192 13.198 20.9003 13.198ZM21.912 0.686161C21.8004 0.41751 21.5869 0.204022 21.3182 0.092455C21.186 0.0361178 21.044 0.00623569 20.9003 0.00449856H14.3022C14.0106 0.00449856 13.7309 0.120334 13.5246 0.326522C13.3184 0.53271 13.2025 0.812361 13.2025 1.10395C13.2025 1.39555 13.3184 1.6752 13.5246 1.88139C13.7309 2.08758 14.0106 2.20341 14.3022 2.20341H18.2501L0.325284 20.1136C0.222212 20.2158 0.140402 20.3374 0.0845731 20.4713C0.0287437 20.6053 0 20.749 0 20.8942C0 21.0393 0.0287437 21.183 0.0845731 21.317C0.140402 21.451 0.222212 21.5726 0.325284 21.6748C0.427513 21.7778 0.54914 21.8596 0.683146 21.9154C0.817152 21.9713 0.960886 22 1.10606 22C1.25123 22 1.39496 21.9713 1.52897 21.9154C1.66298 21.8596 1.7846 21.7778 1.88683 21.6748L19.8006 3.75364V7.70069C19.8006 7.99229 19.9165 8.27194 20.1227 8.47813C20.329 8.68431 20.6087 8.80015 20.9003 8.80015C21.192 8.80015 21.4717 8.68431 21.6779 8.47813C21.8841 8.27194 22 7.99229 22 7.70069V1.10395C21.9983 0.960281 21.9684 0.818341 21.912 0.686161Z" fill="white"/>
</svg>
